<?xml version="1.0" encoding="UTF-8" standalone="no"?>
<!-- Created with Inkscape (http://www.inkscape.org/) -->

<svg
   xmlns:dc="http://purl.org/dc/elements/1.1/"
   xmlns:cc="http://creativecommons.org/ns#"
   xmlns:rdf="http://www.w3.org/1999/02/22-rdf-syntax-ns#"
   xmlns:svg="http://www.w3.org/2000/svg"
   xmlns="http://www.w3.org/2000/svg"
   xmlns:sodipodi="http://sodipodi.sourceforge.net/DTD/sodipodi-0.dtd"
   xmlns:inkscape="http://www.inkscape.org/namespaces/inkscape"
   width="210mm"
   height="297mm"
   viewBox="0 0 744.09448819 1052.3622047"
   id="svg2"
   version="1.1"
   inkscape:version="0.91 r13725"
   sodipodi:docname="home.svg"
   inkscape:export-filename="/home/chris/Documents/Projects/git/tribute/src/home.svg.png"
   inkscape:export-xdpi="90"
   inkscape:export-ydpi="90">
  <defs
     id="defs4" />
  <sodipodi:namedview
     id="base"
     pagecolor="#ffffff"
     bordercolor="#666666"
     borderopacity="1.0"
     inkscape:pageopacity="0.0"
     inkscape:pageshadow="2"
     inkscape:zoom="0.35"
     inkscape:cx="-280.20409"
     inkscape:cy="480.91952"
     inkscape:document-units="px"
     inkscape:current-layer="layer1"
     showgrid="false"
     inkscape:window-width="1366"
     inkscape:window-height="703"
     inkscape:window-x="0"
     inkscape:window-y="0"
     inkscape:window-maximized="1" />
  <metadata
     id="metadata7">
    <rdf:RDF>
      <cc:Work
         rdf:about="">
        <dc:format>image/svg+xml</dc:format>
        <dc:type
           rdf:resource="http://purl.org/dc/dcmitype/StillImage" />
        <dc:title></dc:title>
      </cc:Work>
    </rdf:RDF>
  </metadata>
  <g
     inkscape:label="Layer 1"
     inkscape:groupmode="layer"
     id="layer1">
    <path
       style="fill:none;fill-opacity:1;fill-rule:evenodd;stroke:#000000;stroke-width:10;stroke-linecap:butt;stroke-linejoin:miter;stroke-miterlimit:4;stroke-dasharray:none;stroke-opacity:1"
       d="m 135.52865,407.74728 c 0,129.52381 0,259.04762 0,388.57143 0,9.52381 0,19.04762 0,28.57142 0,3.80953 0,7.61905 0,11.42858 0,0.95238 0.52829,2.06471 0,2.85714 -6.20161,9.30242 -5.31481,1.65873 -8.57142,11.42857 -0.51544,1.5463 0,10.45522 0,11.42857 0,2.76352 -0.4237,16.29547 0,17.14286 0.60233,1.20468 1.65246,2.2548 2.85714,2.85714 0.85183,0.42592 1.90476,0 2.85714,0 2.85714,0 5.71429,0 8.57143,0 8.57143,0 17.14286,0 25.71429,0 11.42857,0 22.85714,0 34.28571,0 4.76191,0 9.52381,0 14.28572,0 2.85714,0 5.71428,0 8.57143,0 0.95238,0 2.0053,0.42592 2.85714,0 1.20468,-0.60234 1.65246,-2.2548 2.85714,-2.85714 1.12641,-0.5632 11.46369,0 14.28572,0 10.47619,0 20.95238,0 31.42857,0 18.09524,0 36.19047,0 54.28571,0 5.71429,0 11.42857,0 17.14286,0 1.90476,0 3.80952,0 5.71428,0 0.95239,0 1.95364,-0.30117 2.85715,0 2.0203,0.67343 3.64828,2.34064 5.71428,2.85714 1.84789,0.46197 3.90727,-0.60234 5.71429,0 1.27775,0.42592 1.65246,2.25481 2.85714,2.85714 0.85184,0.42592 1.90476,0 2.85714,0 1.90477,0 3.80953,0 5.71429,0 6.66667,0 13.33333,0 20,0 37.14286,0 74.28571,0 111.42857,0 12.38095,0 24.76191,0 37.14286,0 4.7619,0 9.52381,0 14.28571,0 1.90476,0 3.8664,-0.46197 5.71429,0 2.066,0.51651 3.64828,2.34065 5.71428,2.85715 2.77184,0.69296 5.71429,0 8.57143,0 11.42857,0 22.85715,0 34.28572,0 1.90476,0 3.80952,0 5.71428,0 0.95238,0 2.85715,-0.95238 2.85715,0 0,0.95238 -3.28306,0.85183 -2.85715,0 0.86573,-1.73145 7.66661,-4.66679 5.71429,-8.57143 -0.60234,-1.20468 -1.90476,-1.90476 -2.85714,-2.85714 -1.90477,-2.85715 -4.43899,-5.38317 -5.71429,-8.57143 -1.90476,-4.76191 0.95238,-4.76191 0,-8.57143 -0.73044,-2.92177 -2.1267,-5.64966 -2.85714,-8.57143 -0.77868,-3.11471 0.90287,-15.33711 0,-17.14286 -0.60234,-1.20467 -2.43123,-1.57939 -2.85715,-2.85714 -0.43596,-1.3079 0,-12.69098 0,-14.28571 0,-13.33334 0,-26.66667 0,-40 0,-5.71429 0,-11.42858 0,-17.14286 0,-1.90476 0,-3.80952 0,-5.71429 0,-0.95238 0.42592,-2.0053 0,-2.85714 -0.60233,-1.20468 -2.2548,-1.65247 -2.85714,-2.85714 -0.42592,-0.85184 0,-1.90476 0,-2.85715 0,-3.80952 0,-7.61904 0,-11.42857 0,-8.57143 0,-17.14285 0,-25.71428 0,-10.47619 0,-20.95238 0,-31.42857 0,-1.84197 0.40926,-10.81469 0,-11.42858 -1.49422,-2.24132 -4.50961,-3.30493 -5.71428,-5.71428 -2.85715,-5.71429 1.42857,-4.28572 0,-8.57143 -0.67344,-2.0203 -2.34065,-3.64828 -2.85715,-5.71429 -0.46197,-1.84789 0.46198,-3.86639 0,-5.71428 -0.5165,-2.06601 -2.1837,-3.69398 -2.85714,-5.71429 -0.30117,-0.9035 0.23099,-1.93319 0,-2.85714 -0.73044,-2.92177 -2.1267,-5.64966 -2.85714,-8.57143 -0.6111,-2.44438 0,-11.42997 0,-14.28571 0,-9.52381 0,-19.04762 0,-28.57143 0,-18.09524 0,-36.19048 0,-54.28572 0,-5.71428 0,-11.42857 0,-17.14285 0,-1.90476 -0.46198,-3.8664 0,-5.71429 0.5165,-2.066 2.1837,-3.69398 2.85714,-5.71428 0.53733,-1.612 0,-6.69398 0,-8.57143 0,-7.61905 0,-15.2381 0,-22.85715 0,-6.66666 0,-13.33333 0,-20 0,-1.90476 0,-3.80952 0,-5.71428 0,-0.95238 -0.42592,-2.00531 0,-2.85714 1.53567,-3.07134 4.17862,-5.5001 5.71429,-8.57143 0.42591,-0.85184 -0.30117,-1.95364 0,-2.85715 0.67343,-2.0203 2.1837,-3.69398 2.85714,-5.71428 0.90351,-2.71052 -0.69296,-5.79959 0,-8.57143 0.5165,-2.066 2.18371,-3.69398 2.85714,-5.71429 0.0534,-0.16012 0.2749,-13.73591 0,-14.28571 -0.60234,-1.20468 -1.90476,-1.90476 -2.85714,-2.85714 -0.95238,-0.95238 -1.90476,-1.90476 -2.85714,-2.85715 -0.95239,-0.95238 -1.90477,-1.90476 -2.85715,-2.85714 -0.95238,-0.95238 -1.57939,-2.43122 -2.85714,-2.85714 -1.80702,-0.60234 -3.80952,0 -5.71429,0 -0.95238,0 -2.0053,-0.42592 -2.85714,0 -1.20468,0.60234 -1.65246,2.2548 -2.85714,2.85714 -1.79578,0.89789 -9.6328,-0.89789 -11.42857,0 -1.20468,0.60234 -1.55049,2.53048 -2.85715,2.85714 -9.52381,2.38096 -6.3492,-1.5873 -14.28571,0 -2.95321,0.59065 -5.58299,2.48359 -8.57143,2.85715 -4.72513,0.59064 -9.66599,-1.15493 -14.28571,0 -3.33133,0.83283 -5.31379,4.6284 -8.57143,5.71428 -5.49583,1.83194 -11.49811,1.55451 -17.14286,2.85715 -70.45005,20.12858 12.64025,-1.63052 -31.42857,5.71428 -2.10061,0.3501 -3.64828,2.34064 -5.71429,2.85714 -2.77183,0.69296 -5.71428,0 -8.57142,0 -5.71429,0 -11.42858,0 -17.14286,0 -18.09524,0 -36.19048,0 -54.28572,0 -5.71428,0 -11.42857,0 -17.14285,0 -2.85715,0 -6.01593,-1.27775 -8.57143,0 -2.40936,1.20468 -3.80953,3.80953 -5.71429,5.71429 -0.95238,0.95238 -1.57939,2.43123 -2.85714,2.85714 -1.63712,0.54571 -11.60337,0 -14.28571,0 -12.38096,0 -24.76191,0 -37.14286,0 -4.76191,0 -9.61628,-0.93388 -14.28572,0 -2.08823,0.41765 -3.73701,2.06624 -5.71428,2.85715 -2.79629,1.11851 -5.64966,2.1267 -8.57143,2.85714 -2.25115,0.56279 -9.56482,0 -11.42857,0 -6.66667,0 -13.33333,0 -20,0 -9.52381,0 -19.04762,0 -28.57143,0 -1.52632,0 -13.46799,0.40886 -14.28571,0 -1.20468,-0.60234 -1.57939,-2.43123 -2.85715,-2.85714 -1.16865,-0.38955 -19.48123,0 -20,0 -1.90476,0 -3.90727,0.60233 -5.71428,0 -20.69548,-6.8985 4.50459,0.82372 -8.57143,-5.71429 -1.77438,-0.88719 -15.31207,0.9154 -17.14286,0 -11.10176,-5.55088 14.19,-2.85714 -14.28572,-2.85714 z"
       id="path3346"
       inkscape:connector-curvature="0" />
    <path
       style="fill:none;fill-opacity:1;fill-rule:evenodd;stroke:#000000;stroke-width:10;stroke-linecap:butt;stroke-linejoin:miter;stroke-miterlimit:4;stroke-dasharray:none;stroke-opacity:1"
       d="m 299.81437,879.17585 c 0.47619,-2.38095 1.6484,-4.72473 1.42857,-7.14286 -0.27266,-2.99932 -2.20381,-5.63145 -2.85714,-8.57143 -0.4132,-1.8594 0,-3.80952 0,-5.71428 0,-3.80953 0,-7.61905 0,-11.42857 0,-3.33334 0,-6.66667 0,-10 0,-1.42858 0,-2.85715 0,-4.28572 0,-0.47619 -0.11549,-0.9666 0,-1.42857 0.36522,-1.46089 1.13325,-2.80911 1.42857,-4.28571 0.18678,-0.93389 -0.30117,-1.95364 0,-2.85715 0.21296,-0.63887 1.26524,-0.77524 1.42857,-1.42857 0.34648,-1.38592 -0.28016,-2.88488 0,-4.28571 0.41765,-2.08824 2.34064,-3.64828 2.85715,-5.71429 0.23098,-0.92394 0,-1.90476 0,-2.85714 0,-2.85714 0,-5.71429 0,-8.57143 0,-8.09524 0,-16.19048 0,-24.28571 0,-2.38096 0,-4.76191 0,-7.14286 0,-0.95238 -0.35371,-1.97288 0,-2.85714 0.63765,-1.59413 2.21949,-2.69159 2.85714,-4.28572 0.3537,-0.88426 0,-1.90476 0,-2.85714 0,-1.42857 -0.28017,-2.88489 0,-4.28572 -1.06109,-2.64388 2.44073,-2.62004 2.85714,-4.28571 0.34648,-1.38592 -0.23485,-2.87658 0,-4.28571 0.24756,-1.48536 1.18101,-2.80036 1.42857,-4.28572 0.23486,-1.40913 -0.28016,-2.88488 0,-4.28571 0.20883,-1.04412 0.95238,-1.90476 1.42857,-2.85715 0.95239,-1.90476 2.18371,-3.69398 2.85715,-5.71428 0.15058,-0.45176 0,-0.95238 0,-1.42857 0,-1.42857 -0.28017,-2.88489 0,-4.28572 1.85449,-9.27244 1.42857,3.18377 1.42857,-5.71428 0,-2.85715 0,-5.71429 0,-8.57143 0,-0.74703 -0.18782,-5.33866 0,-5.71429 0.30117,-0.60234 0.82623,-1.1274 1.42857,-1.42857 0.43476,-0.21738 3.64235,0 4.28571,0 2.85715,0 5.71429,0 8.57143,0 10.47619,0 20.95238,0 31.42857,0 12.38096,0 24.76191,0 37.14286,0 3.80953,0 7.61905,0 11.42857,0 1.42857,0 2.85715,0 4.28572,0 0.47619,0 0.95238,0 1.42857,0 0.47619,0 1.00265,0.21296 1.42857,0 0.60234,-0.30117 0.7897,-1.21561 1.42857,-1.42857 0.90351,-0.30117 1.90476,0 2.85714,0 0.47619,0 1.00266,0.21296 1.42858,0 0.60233,-0.30117 0.82623,-1.1274 1.42857,-1.42857 1.1823,-0.59115 2.3925,0.4993 2.85714,1.42857 0.67344,1.34687 0.86931,2.88757 1.42857,4.28571 0.39546,0.98864 1.17032,1.82415 1.42857,2.85715 0.33614,1.34454 -0.33613,2.94117 0,4.28571 0.36522,1.46089 1.06335,2.82483 1.42857,4.28572 0.1155,0.46197 -0.15058,0.97681 0,1.42857 0.33672,1.01015 1.17033,1.82414 1.42858,2.85714 0.23098,0.92395 0,1.90476 0,2.85714 0,0.47619 -0.21296,1.00266 0,1.42857 0.30117,0.60234 1.21561,0.7897 1.42857,1.42858 0.30117,0.9035 0,1.90476 0,2.85714 0,0.47619 -0.21296,1.00265 0,1.42857 0.76783,1.53567 2.08931,2.75005 2.85714,4.28571 0.21296,0.42592 -0.15058,0.97682 0,1.42858 1.72633,5.17898 0.67781,1.0167 2.85714,4.28571 0.59064,0.88596 1.09186,1.84699 1.42857,2.85714 0.15059,0.45176 -0.26414,1.03236 0,1.42857 0.74711,1.12067 2.04903,1.77965 2.85715,2.85715 0.63887,0.85183 0.95238,1.90476 1.42857,2.85714 0.47619,0.95238 1.09185,1.84699 1.42857,2.85714 0.30796,0.92387 0,5.583 0,7.14286 0,2.85714 0,5.71429 0,8.57143 0,0.95238 0,1.90476 0,2.85714 0,0.47619 0.15058,0.97682 0,1.42857 -0.67343,2.02031 -2.34064,3.64828 -2.85714,5.71429 -0.23099,0.92394 0.23098,1.9332 0,2.85714 -0.25825,1.033 -1.09186,1.84699 -1.42857,2.85714 -0.15059,0.45176 0.15058,0.97682 0,1.42858 -0.33672,1.01015 -1.09186,1.84699 -1.42858,2.85714 -0.15058,0.45175 0,0.95238 0,1.42857 0,0.95238 0,1.90476 0,2.85714 0,2.85715 0,5.71429 0,8.57143 0,10 0,20 0,30 0,4.76191 0,9.52381 0,14.28572 0,1.13993 0.28569,6.28579 0,7.14285 -0.33671,1.01016 -1.09185,1.84699 -1.42857,2.85715 -0.27727,0.83182 0,7.58847 0,8.57142 0,0.64337 0.21738,3.85096 0,4.28572 -0.30117,0.60234 -0.95238,0.95238 -1.42857,1.42857 -0.47619,0.47619 -0.95238,1.90476 -1.42857,1.42857 -0.47619,-0.47619 1.42857,-2.102 1.42857,-1.42857 0,0.99079 -2.16268,2.81749 -1.42857,4.28571 0.30117,0.60234 1.26524,0.77525 1.42857,1.42858 0.30549,1.22195 0,8.17633 0,10"
       id="path3350"
       inkscape:connector-curvature="0" />
    <text
       xml:space="preserve"
       style="font-style:normal;font-variant:normal;font-weight:bold;font-stretch:normal;font-size:50px;line-height:125%;font-family:Purisa;-inkscape-font-specification:'Purisa, Bold';text-align:start;letter-spacing:0px;word-spacing:0px;writing-mode:lr-tb;text-anchor:start;fill:#000000;fill-opacity:1;stroke:none;stroke-width:1px;stroke-linecap:butt;stroke-linejoin:miter;stroke-opacity:1"
       x="248.38582"
       y="532.03302"
       id="text4152"
       sodipodi:linespacing="125%"><tspan
         sodipodi:role="line"
         id="tspan4154"
         x="248.38582"
         y="532.03302">the dark</tspan><tspan
         sodipodi:role="line"
         x="248.38582"
         y="594.53302"
         id="tspan4156">web shack</tspan></text>
    <path
       style="fill:none;fill-rule:evenodd;stroke:#000000;stroke-width:10;stroke-linecap:butt;stroke-linejoin:miter;stroke-miterlimit:4;stroke-dasharray:none;stroke-opacity:1"
       d="m 139.40105,401.82396 c 1.33524,-4.34825 4.38315,-7.9274 6.06092,-12.12183 0.79091,-1.97727 0.92464,-4.23481 2.0203,-6.06091 1.95999,-3.26664 5.70143,-5.10648 8.08123,-8.08122 3.03364,-3.79206 5.16749,-8.23687 8.08122,-12.12183 2.28571,-3.04762 5.70143,-5.10649 8.08122,-8.08122 0.94069,-1.17587 1.34687,-2.69374 2.0203,-4.04061 0.67344,-1.34687 1.54412,-2.61204 2.02031,-4.04061 0.21295,-0.63888 -0.30117,-1.41797 0,-2.02031 0.5395,-1.07901 4.99729,-4.9973 6.06091,-6.06091 0.67344,-0.67344 1.22788,-1.49202 2.02031,-2.02031 1.25294,-0.83529 2.74935,-1.24555 4.04061,-2.0203 4.07314,-2.44389 8.83892,-5.05114 10.10152,-10.10153 0.32667,-1.30666 0,-2.69374 0,-4.04061 0,-2.02031 0,-4.04061 0,-6.06092 0,-8.75465 0,-17.50931 0,-26.26396 0,-2.69374 -0.74003,-5.49113 0,-8.08122 0.66705,-2.33468 3.27278,-3.75741 4.04061,-6.06092 0.63888,-1.91663 -0.33213,-4.0681 0,-6.06091 0.6949,-4.16941 3.82779,-10.42026 6.06092,-14.14214 0.16828,-0.28046 4.24936,-7.17544 6.06091,-8.08122 0.60234,-0.30117 1.45998,0.37356 2.02031,0 1.58486,-1.05657 2.45575,-2.98404 4.04061,-4.04061 1.12066,-0.74711 2.83593,0.60234 4.04061,0 0.85183,-0.42592 1.2584,-1.44888 2.0203,-2.0203 1.94249,-1.45687 4.16489,-2.52379 6.06092,-4.04061 1.48737,-1.1899 2.40729,-3.06062 4.04061,-4.04061 1.82611,-1.09567 4.15615,-1.06793 6.06091,-2.02031 1.70367,-0.85183 2.33694,-3.18877 4.04061,-4.04061 1.90477,-0.95238 4.23481,-0.92464 6.06092,-2.0203 10.10152,-6.06092 0,-2.02031 6.06091,-6.06092 1.25294,-0.83529 2.83594,-1.1168 4.04061,-2.0203 1.52381,-1.14286 2.55325,-2.85072 4.04062,-4.04061 1.89603,-1.51683 4.11843,-2.58375 6.06091,-4.04062 1.52381,-1.14285 2.69374,-2.69374 4.04061,-4.04061 4.71405,-4.71404 9.42809,-9.42809 14.14214,-14.14213 3.36717,-3.36718 6.73435,-6.73435 10.10152,-10.10153 0.67344,-0.67343 1.34687,-1.34687 2.02031,-2.0203 0.67343,-0.67344 1.59438,-1.16847 2.0203,-2.02031 0.30117,-0.60234 -0.30117,-1.41796 0,-2.0203 0.42592,-0.85184 1.34687,-1.34687 2.02031,-2.02031 0.67343,-0.67343 1.16847,-1.59438 2.0203,-2.0203 0.60234,-0.30117 1.41797,0.30117 2.02031,0 0.85183,-0.42592 1.34687,-1.34687 2.0203,-2.02031 0.67344,-0.67343 1.71914,-1.11679 2.02031,-2.0203 0.42591,-1.27776 -0.42592,-2.76286 0,-4.04061 0.30742,-0.92227 5.15105,-5.15106 6.06091,-6.06092 0.67344,-0.67343 1.34687,-1.34687 2.02031,-2.0203 0.67343,-0.67344 1.34687,-2.69374 2.0203,-2.02031 0.67344,0.67344 -2.87214,2.44623 -2.0203,2.02031 2.17176,-1.08588 3.97883,-2.79136 6.06091,-4.04061 1.29126,-0.77475 2.78767,-1.18501 4.04061,-2.02031 2.37729,-1.58485 3.7752,-4.34662 6.06092,-6.06091 -0.23007,-3.82732 4.71404,-1.34687 6.06091,-2.02031 2.10766,-1.05383 3.19499,-4.88623 4.04061,-4.04061 0.67344,0.67344 -2.0203,2.97269 -2.0203,2.02031 0,-1.50585 1.54411,-2.61204 2.0203,-4.04061 0.21296,-0.63888 -0.47619,-1.54412 0,-2.02031 7.88472,-7.88471 1.08501,0.46766 6.06092,-2.0203 0.85183,-0.42592 1.34687,-1.34687 2.0203,-2.02031 0.67344,-0.67343 1.71914,-1.11679 2.02031,-2.0203 0.34472,-1.03417 0,-10.67749 0,-12.12183 0,-0.67344 -0.30117,-1.41797 0,-2.02031 0.50931,-1.01861 2.47308,-3.06532 4.04061,-2.0203 3.16971,2.11314 5.10648,5.70143 8.08122,8.08122 26.74845,21.39876 5.72693,3.79771 28.28427,20.20305 3.48734,2.53625 6.31596,6.01637 10.10153,8.08122 3.73911,2.03952 8.16728,2.45879 12.12183,4.04061 2.79628,1.11851 5.28493,2.9221 8.08122,4.04061 0.62527,0.2501 1.41796,-0.30117 2.0203,0 0.85184,0.42592 1.34687,1.34687 2.02031,2.0203 1.34687,1.34687 2.89775,2.5168 4.04061,4.04061 0.90351,1.20468 1.34687,2.69374 2.0203,4.04061 0.67344,1.34687 1.54412,2.61204 2.02031,4.04061 2.4062,7.2186 -7.82203,-8.32267 2.0203,8.08122 0.97999,1.63332 2.98404,2.45576 4.04061,4.04061 0.37356,0.56034 -0.21296,1.38143 0,2.02031 0.47619,1.42857 1.54412,2.61204 2.02031,4.04061 0.21296,0.63888 -0.21296,1.38143 0,2.0203 0.95238,2.85715 2.69374,5.38748 4.04061,8.08122 1.34687,2.69374 2.69374,5.38748 4.04061,8.08122 0.67343,1.34687 1.18501,2.78767 2.0203,4.04061 0.52829,0.79243 1.59439,1.16847 2.02031,2.02031 3.28547,6.57095 0.51003,4.80566 4.04061,10.10153 1.05657,1.58485 3.18877,2.33693 4.04061,4.04061 0.30117,0.60233 0,1.34687 0,2.0203 0,3.00705 -0.30117,2.5787 2.0203,6.06092 0.52829,0.79242 1.34687,1.34687 2.02031,2.0203 1.34687,1.34687 2.69374,2.69374 4.04061,4.04061 1.34687,1.34687 2.45575,2.98404 4.04061,4.04061 1.25294,0.83529 2.78767,1.18501 4.04061,2.02031 2.97283,1.98188 5.1084,6.09933 8.08122,8.08122 1.25294,0.83529 2.97582,0.95551 4.04061,2.0203 0.95238,0.95238 -0.60234,2.83593 0,4.04061 0.85184,1.70367 2.98404,2.45575 4.04061,4.04061 0.83529,1.25294 1.1168,2.83594 2.02031,4.04061 1.86705,2.48941 6.36657,5.50925 8.08122,8.08122 0.83529,1.25294 1.18501,2.78767 2.0203,4.04061 1.55408,2.33112 4.50684,3.7298 6.06092,6.06092 0.83529,1.25294 1.18501,2.78767 2.0203,4.04061 0.52829,0.79243 1.59439,1.16847 2.02031,2.0203 0.30117,0.60234 -0.30117,1.41797 0,2.02031 1.15805,2.31611 4.21539,2.81026 6.06091,4.04061 1.38101,0.92067 7.68715,7.49011 8.08122,8.08122 0.37356,0.56033 -0.30117,1.41797 0,2.0203 0.85184,1.70368 3.18878,2.33694 4.04061,4.04061 0.30117,0.60234 -0.21296,1.38143 0,2.02031 0.47619,1.42857 1.54412,2.61204 2.02031,4.04061 0.21296,0.63888 -0.30117,1.41797 0,2.0203 -1.12005,5.00357 4.55507,5.06953 6.06091,8.08123 1.78273,3.56545 -4.28746,1.33008 2.02031,6.06091 1.70367,1.27775 4.28899,0.83902 6.06091,2.02031 1.12067,0.7471 -0.60234,2.83593 0,4.04061 1.21219,2.42436 4.84874,3.63654 6.06092,6.06091 0.60234,1.20468 -0.60234,2.83593 0,4.04061 1.21218,2.42437 4.84873,3.63655 6.06091,6.06092 0.80813,1.61624 -0.80812,4.44467 0,6.06091 0.85184,1.70367 3.18878,2.33694 4.04061,4.04061 0.30117,0.60234 -0.30117,1.41797 0,2.02031 2.23351,4.467 1.25389,0.62694 4.04061,2.0203 1.70367,0.85184 2.2336,3.43827 4.04061,4.04061 1.27776,0.42592 2.76286,-0.42592 4.04061,0 0.90351,0.30117 1.16847,1.59439 2.02031,2.02031 0.60234,0.30117 2.0203,-0.67344 2.0203,0 0,0.67343 -2.62264,-0.30117 -2.0203,0 1.90476,0.95238 4.28899,0.83902 6.06091,2.0203 0.56034,0.37356 -0.30116,1.41797 0,2.02031 0.42592,0.85183 1.34687,1.34687 2.02031,2.0203"
       id="path4158"
       inkscape:connector-curvature="0" />
  </g>
</svg>
