<?xml version="1.0" encoding="UTF-8" standalone="no"?>
<!-- Created with Inkscape (http://www.inkscape.org/) -->

<svg
   xmlns:dc="http://purl.org/dc/elements/1.1/"
   xmlns:cc="http://creativecommons.org/ns#"
   xmlns:rdf="http://www.w3.org/1999/02/22-rdf-syntax-ns#"
   xmlns:svg="http://www.w3.org/2000/svg"
   xmlns="http://www.w3.org/2000/svg"
   xmlns:sodipodi="http://sodipodi.sourceforge.net/DTD/sodipodi-0.dtd"
   xmlns:inkscape="http://www.inkscape.org/namespaces/inkscape"
   width="210mm"
   height="297mm"
   viewBox="0 0 744.09448 1052.3622"
   id="svg4179"
   version="1.1"
   inkscape:version="0.91 r13725"
   sodipodi:docname="map.svg"
   inkscape:export-filename="/home/chris/Documents/Projects/git/tribute/src/map.svg.png"
   inkscape:export-xdpi="79.831131"
   inkscape:export-ydpi="79.831131">
  <defs
     id="defs4181" />
  <sodipodi:namedview
     id="base"
     pagecolor="#ffffff"
     bordercolor="#666666"
     borderopacity="1.0"
     inkscape:pageopacity="0.0"
     inkscape:pageshadow="2"
     inkscape:zoom="1.4"
     inkscape:cx="255.00721"
     inkscape:cy="912.79648"
     inkscape:document-units="px"
     inkscape:current-layer="layer1"
     showgrid="false"
     inkscape:window-width="1366"
     inkscape:window-height="703"
     inkscape:window-x="0"
     inkscape:window-y="0"
     inkscape:window-maximized="1" />
  <metadata
     id="metadata4184">
    <rdf:RDF>
      <cc:Work
         rdf:about="">
        <dc:format>image/svg+xml</dc:format>
        <dc:type
           rdf:resource="http://purl.org/dc/dcmitype/StillImage" />
        <dc:title></dc:title>
      </cc:Work>
    </rdf:RDF>
  </metadata>
  <g
     inkscape:label="Layer 1"
     inkscape:groupmode="layer"
     id="layer1"
     transform="translate(0,-3.464567e-6)">
    <path
       style="fill:none;fill-rule:evenodd;stroke:#000000;stroke-width:10;stroke-linecap:butt;stroke-linejoin:miter;stroke-miterlimit:4;stroke-dasharray:none;stroke-opacity:1"
       d="m 637.14286,1000.5857 c -4.76191,0 -9.70703,1.3082 -14.28572,0 -2.59009,-0.74002 -3.21321,-4.71385 -5.71428,-5.71428 -2.38096,-0.95238 -11.11111,0.63492 -14.28572,0 -2.95321,-0.59064 -5.64965,-2.1267 -8.57143,-2.85715 -0.92394,-0.23098 -1.95363,0.30117 -2.85714,0 -2.0203,-0.67343 -3.64828,-2.34064 -5.71428,-2.85714 -1.39198,-0.34799 -9.9178,0.75539 -11.42858,0 -1.20467,-0.60234 -1.65246,-2.2548 -2.85714,-2.85714 -0.75126,-0.37563 -9.93451,0 -11.42857,0 -2.45226,0 -21.33638,-0.50692 -22.85714,0 -1.27776,0.42592 -1.65247,2.2548 -2.85715,2.85714 -1.3455,0.67275 -11.42857,-0.83863 -11.42857,0 0,1.90476 7.06116,-1.34687 5.71429,0 -2.12959,2.12959 -5.55974,2.85714 -8.57143,2.85714 -1.34687,0 -1.90476,-1.90476 -2.85714,-2.85714 -0.95238,-0.95238 -2.25481,-1.65246 -2.85715,-2.85714 -0.42591,-0.85184 0,-1.90476 0,-2.85714 0,-0.95239 0,-1.90477 0,-2.85715 0,-4.7619 0,-9.52381 0,-14.28571 0,-18.09524 0,-36.19047 0,-54.28571 0,-4.76191 0,-9.52381 0,-14.28572 0,-1.87745 0.53734,-6.95943 0,-8.57143 -0.67343,-2.0203 -2.1837,-3.69398 -2.85714,-5.71428 -0.53733,-1.612 0,-6.69398 0,-8.57143 0,-4.7619 0,-9.52381 0,-14.28571 0,-1.90477 0,-3.80953 0,-5.71429 0,-0.95238 -0.42592,-2.00531 0,-2.85714 0.60234,-1.20468 1.90476,-1.90476 2.85714,-2.85715 0.95239,-0.95238 1.65247,-2.2548 2.85715,-2.85714 0.86952,-0.43476 7.28469,0 8.57143,0 7.61904,0 15.23809,0 22.85714,0 21.65886,0 28.94434,0 45.71428,0 0.99731,0 16.65208,-0.32719 17.14286,0 2.24133,1.49422 3.30493,4.50961 5.71429,5.71429 1.70367,0.85183 3.80952,0 5.71428,0 2.85715,0 5.7996,-0.69296 8.57143,0 1.30666,0.32666 1.65247,2.2548 2.85714,2.85714 0.85184,0.42592 1.90477,0 2.85715,0 0.95238,0 1.90476,0 2.85714,0 3.80952,0 7.61905,0 11.42857,0 6.70051,0 -1.34687,-0.67343 5.71429,2.85714 0.85183,0.42592 1.90476,0 2.85714,0 2.69096,0 12.66039,-0.54177 14.28571,0 1.27776,0.42592 2.25481,1.65247 2.85715,2.85715 0.42591,0.85183 0,1.90476 0,2.85714 0,0.95238 0,1.90476 0,2.85714 0,4.76191 0,9.52381 0,14.28572 0,0.95238 -0.42592,2.0053 0,2.85714 0.60234,1.20468 2.43122,1.57939 2.85714,2.85714 0.4827,1.44809 0,17.66431 0,20 0,0.95238 0,1.90476 0,2.85714 0,0.95239 -0.42592,2.00531 0,2.85715 0.60234,1.20467 2.43123,1.57939 2.85714,2.85714 0.54178,1.62532 0,11.59475 0,14.28571 0,9.52381 0,19.04762 0,28.57143 0,6.66667 0,13.33333 0,20 0,0.95238 0,1.90476 0,2.85714 0,0.95238 -0.95238,2.85715 0,2.85715 0.95238,0 0,-3.80953 0,-2.85715 0,1.90476 0,3.80953 0,5.71429 0,1.90476 0.60234,3.90727 0,5.71428 -0.42591,1.27776 -1.90476,1.90477 -2.85714,2.85715 -1.54879,1.54878 -2.91161,4.25848 -5.71429,2.85714 -1.20467,-0.60234 -1.57939,-2.43123 -2.85714,-2.85714 -1.30682,-0.43561 -10.15721,0.63568 -11.42857,0 -3.27078,-1.63539 -1.69398,-4.19725 -5.71429,-2.85715 -2.0203,0.67344 -3.80952,1.90477 -5.71428,2.85715 -3.80953,1.90476 -7.61905,3.80952 -11.42857,5.71428 z"
       id="path4733"
       inkscape:connector-curvature="0" />
    <path
       style="fill:none;fill-rule:evenodd;stroke:#000000;stroke-width:10;stroke-linecap:butt;stroke-linejoin:miter;stroke-miterlimit:4;stroke-dasharray:none;stroke-opacity:1"
       d="m 214.28571,72.01428 c -23.80952,0 -47.61904,0 -71.42857,0 -4.7619,0 -9.52381,0 -14.28571,0 -0.95238,0 -1.90476,0 -2.85714,0 -0.95239,0 -2.00531,0.42592 -2.85715,0 -1.20467,-0.60234 -1.57939,-2.43123 -2.85714,-2.85715 -1.80702,-0.60233 -5.71429,-1.90476 -5.71429,0 0,1.90477 7.61905,0 5.71429,0 -14.28571,0 -28.571429,0 -42.857143,0 -1.129465,0 -13.065475,0.61012 -14.285714,0 -2.705549,-1.35277 -4.541106,-7.72947 -8.571429,-5.71427 -1.204677,0.6023 -2.254804,1.65245 -2.857143,2.85713 -0.425917,0.85184 0,1.90476 0,2.85714 0,2.85715 0,5.71429 0,8.57143 0,3.80953 0,7.61905 0,11.42857 0,1.90477 0,3.80953 0,5.71429 0,0.95238 -0.301169,1.95364 0,2.85714 0.673435,2.02031 2.183708,3.69398 2.857143,5.71429 0.30117,0.90351 0,1.90476 0,2.85714 0,1.90476 0,3.80953 0,5.71429 0,3.80952 0,7.61905 0,11.42857 0,14.28571 0,28.57143 0,42.85714 0,16.19048 0,32.38095 0,48.57143 0,5.71429 0,11.42857 0,17.14286 0,2.51902 0.608622,6.13694 0,8.57143 -0.730443,2.92177 -2.266501,5.61822 -2.857143,8.57142 -0.91575,4.57876 0.915751,9.70696 0,14.28572 -0.417646,2.08823 -2.340641,3.64828 -2.857142,5.71428 -0.461973,1.8479 0,3.80953 0,5.71429 0,4.33331 0.639345,19.02107 0,22.85714 -0.49512,2.97072 -2.266502,5.61822 -2.857143,8.57143 -0.373555,1.86777 0.707411,3.94576 0,5.71429 -1.275303,3.18825 -4.178618,5.50009 -5.714286,8.57143 -0.425918,0.85183 0,1.90476 0,2.85714 0,2.85714 0.560332,5.76977 0,8.57143 -0.417647,2.08823 -2.183708,3.69398 -2.857143,5.71428 -0.927664,2.783 0.907247,11.56398 0,14.28572 -0.673435,2.0203 -2.183708,3.69398 -2.857143,5.71428 -0.739152,2.21746 0.403939,15.12317 0,17.14286 -0.417646,2.08823 -2.183708,3.69398 -2.857143,5.71429 -0.857142,2.57142 0.857143,6 0,8.57142 -0.851835,2.55551 -4.509608,3.30494 -5.714285,5.71429 -0.425918,0.85184 0,1.90476 0,2.85714 0,1.90477 0,3.80953 0,5.71429 0,5.71428 0,11.42857 0,17.14286 0,11.42857 0,22.85714 0,34.28571 0,1.59636 -0.562025,12.59964 0,14.28571 0.673435,2.02031 2.183708,3.69399 2.857143,5.71429 0.602338,1.80702 -0.602339,3.90727 0,5.71429 0.673435,2.0203 2.183707,3.69398 2.857142,5.71428 0.597766,1.7933 0,9.12847 0,11.42857 0,6.66667 0,13.33334 0,20 0,7.61905 0,15.2381 0,22.85715 0,0.97335 -0.515434,9.88226 0,11.42857 0.673435,2.0203 2.340642,3.64828 2.857143,5.71428 0.461973,1.84789 0,3.80953 0,5.71429 0,0.95238 -0.528286,2.06471 0,2.85714 1.494218,2.24133 4.220068,3.47296 5.714286,5.71429 1.056572,1.58486 -0.851835,4.01061 0,5.71428 0.602339,1.20468 2.254804,1.65247 2.857143,2.85715 0.928033,1.85606 -0.906167,12.47338 0,14.28571 0.602338,1.20468 2.431225,1.57939 2.857143,2.85714 0.602338,1.80702 0,3.80953 0,5.71429 0,3.73909 -0.644461,11.06341 0,14.28571 0.590641,2.95321 2.266501,5.61822 2.857143,8.57143 0.373554,1.86777 0,3.80953 0,5.71429 0,0.95238 -0.528286,2.06471 0,2.85714 1.494218,2.24133 4.509608,3.30493 5.714285,5.71429 0.607165,1.21433 0,11.89142 0,14.28571 0,9.52381 0,19.04762 0,28.57143 0,0.67894 -0.320186,10.7882 0,11.42857 0.602339,1.20468 2.431225,1.57939 2.857143,2.85714 0.462693,1.38808 0,17.083 0,20 0,7.61905 0,15.2381 0,22.85715 0,1.90476 0,3.80952 0,5.71428 0,0.95238 0.425918,2.00531 0,2.85714 -0.602338,1.20468 -2.254804,1.65247 -2.857143,2.85715 -0.425917,0.85183 0,1.90476 0,2.85714 0,1.90476 0,3.80952 0,5.71429 0,6.66666 0,13.33333 0,20 0,2.85714 0.903508,5.8609 0,8.57142 -0.425917,1.27776 -2.254804,1.65247 -2.857143,2.85715 -0.906166,1.81233 0.928034,12.42964 0,14.28571 -0.602338,1.20468 -2.254804,1.65247 -2.857142,2.85714 -0.425918,0.85184 0,1.90477 0,2.85715 0,4.7619 0,9.52381 0,14.28571 0,1.90476 0,3.80953 0,5.71429 0,0.95238 -0.425918,2.0053 0,2.85714 2.857142,5.71429 2.857142,1.90476 5.714285,0 1.771925,-1.18128 3.648282,-2.34064 5.714286,-2.85714 13.006528,0 0.163403,1.34687 8.571429,-2.85715 1.271363,-0.63568 10.121751,0.43561 11.428571,0 1.277753,-0.42591 1.652466,-2.2548 2.857143,-2.85714 0.851835,-0.42592 1.904762,0 2.857143,0 0.952381,0 1.904762,0 2.857143,0 4.761904,0 9.523809,0 14.285711,0 1.90476,0 3.80953,0 5.71429,0 0.95238,0 2.00531,0.42592 2.85714,0 2.40936,-1.20468 3.15878,-4.86245 5.71429,-5.71428 3.57285,-1.19096 16.42714,1.19095 20,0 1.27775,-0.42592 1.65246,-2.25481 2.85714,-2.85715 0.85184,-0.42591 1.90476,0 2.85714,0 0.95238,0 1.90476,0 2.85715,0 2.33568,0 18.55191,0.4827 20,0 1.27775,-0.42591 1.57939,-2.43122 2.85714,-2.85714 1.80701,-0.60234 3.80952,0 5.71428,0 6.66667,0 13.33334,0 20,0 20,0 40,0 60,0 29.44783,0 64.51129,0 85.71429,0 11.42857,0 22.85714,0 34.28571,0 1.23072,0 16.36971,0.38658 17.14286,0 1.20468,-0.60234 1.57939,-2.43122 2.85714,-2.85714 1.62532,-0.54178 11.59475,0 14.28572,0 11.42857,0 22.85714,0 34.28571,0 36.19048,0 72.38096,0 108.57143,0 32.38095,0 64.76191,0 97.14286,0 4.7619,0 9.52381,0 14.28571,0 1.87745,0 6.95944,-0.53733 8.57143,0 2.02031,0.67343 3.80953,3.80952 5.71429,2.85714 1.70367,-0.85184 -0.60234,-3.90727 0,-5.71429 0.42591,-1.27775 2.2548,-1.65246 2.85714,-2.85714 0.32019,-0.64037 0,-10.74963 0,-11.42857 0,-7.61905 0,-15.23809 0,-22.85714 0,-1.59636 -0.56202,-12.59964 0,-14.28572 0.67344,-2.0203 2.18371,-3.69398 2.85714,-5.71428 0.58104,-1.74312 0,-14.93619 0,-17.14286 0,-0.95238 0,-1.90476 0,-2.85714 0,-0.95238 -0.42591,-2.00531 0,-2.85715 1.20468,-2.40935 4.50961,-3.30493 5.71429,-5.71428 0.61012,-1.22024 0,-13.15625 0,-14.28572 0,-20.95238 0,-41.90476 0,-62.85714 0,-5.71428 0,-11.42857 0,-17.14286 0,-0.67894 0.32018,-10.78819 0,-11.42857 -6.53801,-13.07602 1.1842,12.12405 -5.71429,-8.57143 -0.53733,-1.61199 0,-6.69397 0,-8.57142 0,-4.76191 0,-9.52381 0,-14.28572 0,-16.19047 0,-32.38095 0,-48.57143 0,-9.52381 0,-19.04762 0,-28.57143 0,-2.39428 -0.60716,-13.07138 0,-14.28571 1.20468,-2.40935 4.22007,-3.47296 5.71429,-5.71429 0.25326,-0.37988 0,-12.80123 0,-14.28571 0,-6.45496 -0.42592,1.27775 2.85714,-8.57143 0.12254,-0.36763 0.11831,-8.3348 0,-8.57143 -0.60234,-1.20467 -2.2548,-1.65246 -2.85714,-2.85714 -0.42497,-0.84993 0,-15.94096 0,-17.14286 0,-25.71428 0,-51.42857 0,-77.14285 0,-19.04762 0,-38.09524 0,-57.14286 0,-5.71429 0,-11.42857 0,-17.14286 0,-1.90476 0,-3.80952 0,-5.71428 0,-0.95238 0.42592,-2.00531 0,-2.85715 -0.60234,-1.20467 -2.25481,-1.65246 -2.85714,-2.85714 -0.94675,-1.8935 0.79821,-9.03393 0,-11.42857 -0.67344,-2.02031 -2.34065,-3.64828 -2.85715,-5.71429 -0.46197,-1.84789 0,-3.80952 0,-5.71428 0,-0.95238 0.42592,-2.00531 0,-2.85715 -0.60234,-1.20467 -2.2548,-1.65246 -2.85714,-2.85714 -0.89789,-1.79578 0.89789,-9.63279 0,-11.42857 -1.20468,-2.40935 -4.86245,-3.15878 -5.71429,-5.71429 -0.512,-1.53601 0,-9.00957 0,-11.42857 0,-7.61904 0,-15.23809 0,-22.85714 0,-23.80952 0,-47.61905 0,-71.42857 0,-11.42857 0,-22.85714 0,-34.28572 0,-6.7005 0.67344,1.34687 -2.85714,-5.71428 -0.42592,-0.85184 0.95238,-2.85714 0,-2.85714 -0.95238,0 0,3.80952 0,2.85714 0,-1.90476 0.60234,-3.90727 0,-5.71429 -0.42592,-1.27775 -1.90476,-1.90476 -2.85714,-2.85714 -0.95238,-0.95238 -1.57939,-2.43122 -2.85714,-2.85714 -1.79006,-0.59669 -17.82376,0 -20,0 -3.80953,0 -7.61905,0 -11.42858,0 -1.90476,0 -3.90727,-0.60234 -5.71428,0 -10.35797,3.45266 -2.03342,1.35561 -8.57143,5.71428 -1.77192,1.18129 -3.80952,1.90477 -5.71429,2.85715 -1.90476,0.95238 -3.69398,2.1837 -5.71428,2.85714 -0.90351,0.30117 -1.95364,-0.30117 -2.85714,0 -9.84919,3.28306 -2.11647,2.85714 -8.57143,2.85714 -22.85715,0 -45.71429,0 -68.57143,0 -7.61905,0 -15.2381,0 -22.85714,0 -2.51902,0 -6.13694,0.60862 -8.57143,0 -2.92177,-0.73044 -5.64966,-2.1267 -8.57143,-2.85714 -2.77405,-0.69351 -12.64239,0.82166 -14.28572,0 -2.40935,-1.20468 -3.15878,-4.86245 -5.71428,-5.71429 -1.80702,-0.60234 -3.80953,0 -5.71429,0 -24.7619,0 -49.52381,0 -74.28571,0 -9.52381,0 -19.04762,0 -28.57143,0 -1.90476,0 -3.80952,0 -5.71429,0 -1.90476,0 -3.86639,0.46198 -5.71428,0 -2.06601,-0.5165 -3.69398,-2.1837 -5.71429,-2.85714 -1.86475,-0.62158 -13.72682,0 -17.14285,0 -3.80953,0 -7.61905,0 -11.42858,0 -0.95238,0 -2.85714,-0.95238 -2.85714,0 0,0.95238 3.70898,0.42592 2.85714,0 -2.69374,-1.34687 -5.71428,-1.90476 -8.57142,-2.85714"
       id="path4735"
       inkscape:connector-curvature="0" />
    <path
       style="fill:none;fill-rule:evenodd;stroke:#000000;stroke-width:10;stroke-linecap:butt;stroke-linejoin:miter;stroke-miterlimit:4;stroke-dasharray:none;stroke-opacity:1"
       d="m 211.42857,149.15713 c 0,23.80953 0,47.61905 0,71.42858 0,3.80952 0,7.61904 0,11.42857 0,0.95238 -0.95238,2.85714 0,2.85714 0.95238,0 0.67344,-3.53058 0,-2.85714 -1.50585,1.50584 -1.35129,4.20844 -2.85714,5.71428 -0.22942,0.22943 -12.03682,0 -14.28572,0 -17.14285,0 -34.28571,0 -51.42857,0 -41.5469,0 -53.12969,0 -88.571426,0"
       id="path4737"
       inkscape:connector-curvature="0" />
    <path
       style="fill:none;fill-rule:evenodd;stroke:#000000;stroke-width:10;stroke-linecap:butt;stroke-linejoin:miter;stroke-miterlimit:4;stroke-dasharray:none;stroke-opacity:1"
       d="m 321.42857,140.58571 c 0,4.28571 0,8.57142 0,12.85714 0,0.95238 0,1.90476 0,2.85714 0,0.47619 0.21296,1.00266 0,1.42857 -0.30117,0.60234 -1.1274,0.82624 -1.42857,1.42857 -0.26034,0.52068 0,6.31972 0,7.14286 0,4.28572 0,8.57143 0,12.85714 0,12.38096 0,24.76191 0,37.14286 0,1.90476 0.37355,3.84651 0,5.71429 -0.20882,1.04411 -1.21975,1.81302 -1.42857,2.85714 -0.46694,2.33472 0,4.76191 0,7.14286 0,4.28571 0,8.57143 0,12.85714 0,14.28571 0,28.57143 0,42.85714 0,6.66667 0,13.33334 0,20 0,1.19163 -0.20302,6.83833 0,7.14286 0.74711,1.12066 2.2548,1.65247 2.85714,2.85714 0.58522,1.17043 -0.53425,8.39726 0,10 0.21296,0.63888 1.1274,0.82624 1.42857,1.42857 0.20443,0.40887 0,6.3797 0,7.14286 0,0.47619 -0.47619,1.42857 0,1.42857 0.47619,0 0,-1.90476 0,-1.42857 0,0.95238 -0.18677,1.92326 0,2.85714 0.29532,1.47661 1.06335,2.82483 1.42857,4.28572 0.23099,0.92394 0,1.90476 0,2.85714 0,0.56473 -0.30506,6.53274 0,7.14286 0.30117,0.60234 0.82624,1.1274 1.42858,1.42857 0.37563,0.18782 4.96725,0 5.71428,0 14.28572,0 28.57143,0 42.85714,0 11.90477,0 23.80953,0 35.71429,0 3.80952,0 7.61905,0 11.42857,0 1.90476,0 3.8664,0.46197 5.71429,0 0.65333,-0.16333 0.82623,-1.1274 1.42857,-1.42857 0.5632,-0.2816 5.73184,0 7.14286,0 9.52381,0 19.04762,0 28.57142,0 2.38096,0 4.76191,0 7.14286,0 0.47619,0 0.95238,0 1.42857,0 0.47619,0 1.03236,0.26414 1.42857,0 1.12067,-0.74711 1.73648,-2.11003 2.85715,-2.85714 0.39621,-0.26415 0.95238,0 1.42857,0 0.47619,0 0.95238,0 1.42857,0 2.38095,0 4.76191,0 7.14286,0 7.61905,0 15.23809,0 22.85714,0 27.14286,0 54.28571,0 81.42857,0 14.28572,0 28.57143,0 42.85714,0 5.71429,0 11.42858,0 17.14286,0 1.65361,0 5.86745,-0.31885 7.14286,0 1.033,0.25825 1.84699,1.09185 2.85714,1.42857 0.82754,0.27584 4.47631,0 5.71429,0 4.7619,0 9.52381,0 14.28571,0 1.2095,0 4.94628,-0.25601 5.71429,0 0.63887,0.21296 0.95238,0.95238 1.42857,1.42857"
       id="path4739"
       inkscape:connector-curvature="0" />
    <path
       style="fill:none;fill-rule:evenodd;stroke:#000000;stroke-width:10;stroke-linecap:butt;stroke-linejoin:miter;stroke-miterlimit:4;stroke-dasharray:none;stroke-opacity:1"
       d="m 47.142857,297.72856 c 1.904762,0.47619 3.78903,1.04352 5.714286,1.42857 0.933886,0.18678 1.904762,0 2.857143,0 3.333333,0 6.666666,0 10,0 9.047619,0 18.095238,0 27.142857,0 4.285714,0 8.571427,0 12.857147,0 1.2095,0 4.94627,0.25601 5.71428,0 0.63888,-0.21295 0.82623,-1.1274 1.42857,-1.42857 0.42592,-0.21296 0.95238,0 1.42857,0 1.42858,0 2.85715,0 4.28572,0 0.95238,0 1.95363,0.30117 2.85714,0 0.63888,-0.21296 0.77524,-1.26524 1.42857,-1.42857 0.85309,-0.21327 9.0393,0 10,0 7.61905,0 15.2381,0 22.85715,0 7.14285,0 14.28571,0 21.42857,0 1.90476,0 3.80952,0 5.71428,0 0.47619,0 0.95238,0 1.42857,0 0.47619,0 1.00266,-0.21296 1.42858,0 1.20467,0.60234 1.65246,2.25481 2.85714,2.85714 0.43476,0.21739 3.64234,0 4.28571,0 2.85715,0 5.71429,0 8.57143,0 0.33947,0 5.3941,-0.16009 5.71429,0 0.60234,0.30117 1.1274,0.82624 1.42857,1.42858 0.22762,0.45524 0,5.86611 0,7.14285 0,1.42857 0.45175,2.93046 0,4.28572 -0.42385,1.27154 -3.86187,3.01417 -4.28572,4.28571 -0.25346,0.76038 0,10.20244 0,11.42857 0,1.90477 0,3.80953 0,5.71429 0,0.47619 0,0.95238 0,1.42857 0,0.47619 -0.47619,1.42857 0,1.42857 0.47619,0 0,-1.90476 0,-1.42857 0,2.85714 0,5.71429 0,8.57143 0,0.47619 0,0.95238 0,1.42857 0,0.95238 -0.95238,2.85714 0,2.85714 0.95239,0 0,-3.80952 0,-2.85714 0,2.38095 0,4.76191 0,7.14286 0,6.19047 0,12.38095 0,18.57143 0,1.90476 0,3.80952 0,5.71428 0,0.47619 0,0.95238 0,1.42857 0,0.47619 -0.21295,1.00266 0,1.42857 0.30117,0.60234 1.21562,0.7897 1.42858,1.42858 0.24134,0.72404 0,8.83215 0,10 0,0.47619 0,0.95238 0,1.42857 0,0.47619 -0.47619,1.42857 0,1.42857 0.47619,0 0.21295,-1.85449 0,-1.42857 -0.67344,1.34687 -1.06335,2.82483 -1.42858,4.28571 -0.31043,1.24175 0,4.30174 0,5.71429 0,3.80952 0,7.61905 0,11.42857 0,8.50493 0,9.51621 0,18.57143 0,1.84267 0.32348,9.02957 0,10 -0.33671,1.01015 -1.17032,1.82414 -1.42857,2.85714 -0.26317,1.05271 0.41848,6.30589 0,7.14286 -0.30117,0.60234 -1.1274,0.82623 -1.42857,1.42857 -0.18781,0.37563 0,4.96726 0,5.71428"
       id="path4741"
       inkscape:connector-curvature="0" />
    <path
       style="fill:none;fill-rule:evenodd;stroke:#000000;stroke-width:10;stroke-linecap:butt;stroke-linejoin:miter;stroke-miterlimit:4;stroke-dasharray:none;stroke-opacity:1"
       d="m 198.57143,503.44285 c -0.5208,-7.09735 -5.12255,-0.0817 -7.14286,-1.42857 -1.12066,-0.74711 -1.65246,-2.25481 -2.85714,-2.85715 -1.17043,-0.58521 -8.39725,0.53425 -10,0 -0.63888,-0.21295 -0.82623,-1.1274 -1.42857,-1.42857 -0.32019,-0.16009 -5.37482,0 -5.71429,0 -2.85714,0 -5.71428,0 -8.57143,0 -0.47619,0 -0.95238,0 -1.42857,0 -0.47619,0 -1.00265,-0.21296 -1.42857,0 -0.60234,0.30117 -0.82623,1.12741 -1.42857,1.42857 -0.85184,0.42592 -2.00531,-0.42591 -2.85714,0 -0.60234,0.30117 -0.82624,1.12741 -1.42858,1.42858 -0.42591,0.21296 -0.95238,0 -1.42857,0 -0.95238,0 -1.90476,0 -2.85714,0 -2.38095,0 -4.7619,0 -7.14286,0 -12.85714,0 -25.71428,0 -38.57143,0 -2.85714,0 -5.714281,0 -8.571424,0 -0.339472,0 -5.3941,-0.1601 -5.714286,0 -0.602339,0.30117 -0.789695,1.21561 -1.428571,1.42857 -0.65341,0.2178 -5.078604,-0.31784 -5.714286,0 -0.602339,0.30117 -0.789695,1.21561 -1.428572,1.42857 -0.768008,0.256 -4.504784,0 -5.714285,0 -4.285715,0 -8.571429,0 -12.857143,0 -14.062509,0 -26.781596,0 -34.285714,0"
       id="path4743"
       inkscape:connector-curvature="0" />
    <path
       style="fill:none;fill-rule:evenodd;stroke:#000000;stroke-width:10;stroke-linecap:butt;stroke-linejoin:miter;stroke-miterlimit:4;stroke-dasharray:none;stroke-opacity:1"
       d="m 331.42857,414.87142 c 1.80196,4.22106 1.42857,8.46012 1.42857,12.85714 0,0.95238 0,1.90477 0,2.85715 0,0.47619 0.15059,0.97681 0,1.42857 -0.33671,1.01015 -1.17032,1.82414 -1.42857,2.85714 -0.23098,0.92395 0.23099,1.9332 0,2.85714 -0.25825,1.03301 -1.09185,1.84699 -1.42857,2.85715 -0.15058,0.45175 0.15058,0.97681 0,1.42857 -0.33672,1.01015 -1.09185,1.84699 -1.42857,2.85714 -0.32754,0.98262 0.42144,3.44283 0,4.28571 -0.30117,0.60234 -1.1274,0.82624 -1.42857,1.42858 -0.57143,1.14285 0.57143,3.14285 0,4.28571 -0.60234,1.20468 -2.25481,1.65247 -2.85715,2.85714 -0.57142,1.14286 0.57143,3.14286 0,4.28572 -0.30116,0.60234 -1.21561,0.78969 -1.42857,1.42857 -0.45175,1.35526 0,2.85714 0,4.28571 0,3.33334 0,6.66667 0,10 0,2.38096 0,4.76191 0,7.14286 0,0.95238 0,1.90476 0,2.85714 0,0.47619 -0.21296,1.00266 0,1.42857 0.30117,0.60234 1.12741,0.82624 1.42857,1.42858 0.21296,0.42591 -0.15058,0.97681 0,1.42857 0.33672,1.01015 1.09186,1.84699 1.42858,2.85714 0.15058,0.45175 -0.21296,1.00265 0,1.42857 2.17825,4.35652 1.13252,-2.61278 2.85714,4.28572 0.23099,0.92394 -0.30117,1.95363 0,2.85714 0.42592,1.27775 2.2548,1.65246 2.85714,2.85714 0.67344,1.34687 1.06335,2.82483 1.42857,4.28572 0.1155,0.46197 -0.21296,1.00265 0,1.42857 0.30117,0.60234 1.21562,0.78969 1.42857,1.42857 0.30117,0.90351 -0.23098,1.9332 0,2.85714 0.25826,1.033 1.09186,1.84699 1.42858,2.85714 0.40005,1.20016 -0.38171,6.57031 0,7.14286 0.7471,1.12067 2.04902,1.77965 2.85714,2.85714 3.14738,0.71942 0.75514,2.93885 1.42857,4.28572 0.30117,0.60234 1.21561,0.78969 1.42857,1.42857 0.30117,0.90351 -0.30117,1.95364 0,2.85714 0.21296,0.63888 1.1274,0.82624 1.42857,1.42857 0.1601,0.32019 0,5.37482 0,5.71429 0,2.85714 0,5.71429 0,8.57143 0,2.38095 0,4.7619 0,7.14286 0,0.95238 0.30117,1.95363 0,2.85714 -0.21296,0.63888 -1.1274,0.82623 -1.42857,1.42857 -0.21248,0.42497 0,7.97048 0,8.57143 0,6.66667 0,13.33333 0,20 0,16.19048 0,32.38095 0,48.57143 0,0.95238 0,1.90476 0,2.85714 0,0.47619 0.21296,1.00265 0,1.42857 -0.85714,1.71429 -3.42857,2.57143 -4.28571,4.28572 -0.21296,0.42591 0,0.95238 0,1.42857 0,0.47619 -0.21296,1.00265 0,1.42857 0.30117,0.60234 0.82623,1.1274 1.42857,1.42857 0.42592,0.21296 0.95238,0 1.42857,0 1.42857,0 2.93045,0.45175 4.28571,0 0.63888,-0.21296 0.82624,-1.1274 1.42858,-1.42857 0.32018,-0.16009 5.37481,0 5.71428,0 0.47619,0 1.42857,0.47619 1.42857,0 0,-0.47619 -1.90476,0 -1.42857,0 2.38095,0 4.76191,0 7.14286,0 6.19047,0 12.38095,0 18.57143,0 4.7619,0 9.52381,0 14.28571,0 0.79818,0 6.29982,-0.28101 7.14286,0 1.01015,0.33672 1.84699,1.09185 2.85714,1.42857 0.90351,0.30117 1.90476,0 2.85714,0 1.22613,0 10.6682,-0.25346 11.42858,0 0.63887,0.21296 0.82623,1.1274 1.42857,1.42857 0.42592,0.21296 1.00265,-0.21296 1.42857,0 0.60234,0.30117 0.78969,1.21561 1.42857,1.42857 0.76801,0.25601 4.50479,0 5.71429,0 3.80952,0 7.61904,0 11.42857,0 11.90476,0 23.80952,0 35.71428,0 1.65361,0 5.86746,-0.31885 7.14286,0 2.58563,-0.86104 2.65689,2.31421 4.28571,2.85715 0.72405,0.24134 8.83216,0 10,0 0.4762,0 1.00266,0.21296 1.42858,0 0.60233,-0.30117 0.82623,-1.12741 1.42857,-1.42858 0.42592,-0.21295 0.9666,0.1155 1.42857,0 1.46088,-0.36522 2.82483,-1.06335 4.28571,-1.42857 1.12558,-0.28139 4.78241,0 5.71429,0 0.93872,0 3.47972,0.26867 4.28571,0 1.01016,-0.33671 1.84699,-1.09185 2.85715,-1.42857 0.45175,-0.15058 0.95238,0 1.42857,0 1.90133,0 5.75539,0.46249 7.14285,0 1.62883,-0.54294 2.75005,-2.08931 4.28572,-2.85714 0.78126,-0.39063 3.3135,0.24305 4.28571,0 1.46089,-0.36522 2.82483,-1.06335 4.28572,-1.42857 0.92394,-0.23099 1.9332,0.23098 2.85714,0 1.46089,-0.36522 2.82483,-1.06335 4.28571,-1.42857 1.0546,-0.26365 6.12383,0 7.14286,0 4.76191,0 9.52381,0 14.28572,0 1.28766,0 6.24371,0.29971 7.14285,0 1.01016,-0.33672 1.84699,-1.09186 2.85715,-1.42858 0.45175,-0.15058 0.95238,0 1.42857,0 1.42857,0 2.95932,0.53056 4.28571,0 1.25054,-0.50021 1.60661,-2.35692 2.85714,-2.85714 1.17225,-0.46889 5.34543,0 7.14286,0 4.76191,0 9.52381,0 14.28572,0 5.71428,0 11.42857,0 17.14285,0 1.70802,0 7.63906,-0.31079 8.57143,0 1.01015,0.33672 1.82414,1.17032 2.85714,1.42857 0.92395,0.23099 1.90477,0 2.85715,0 0.47619,0 1.00265,-0.21296 1.42857,0 0.60234,0.30117 0.82623,1.12741 1.42857,1.42857 0.42592,0.21296 0.95238,0 1.42857,0 0.95238,0 1.90476,0 2.85714,0 2.51127,0 6.33621,-0.37253 8.57143,0 1.48536,0.24756 2.80911,1.13326 4.28572,1.42858 1.60907,0.32181 3.99509,0 5.71428,0 3.33334,0 6.66667,0 10,0 1.19715,0 6.5357,-0.30359 7.14286,0 1.20468,0.60233 1.73648,2.11003 2.85714,2.85714 0.39622,0.26414 0.95238,0 1.42857,0 3.53058,0 2.18371,0.67343 4.28572,-1.42857"
       id="path4745"
       inkscape:connector-curvature="0" />
    <path
       style="fill:none;fill-rule:evenodd;stroke:#000000;stroke-width:10;stroke-linecap:butt;stroke-linejoin:miter;stroke-miterlimit:4;stroke-dasharray:none;stroke-opacity:1"
       d="m 194.28571,553.44285 c 0,1.90476 -0.31314,3.83544 0,5.71428 0.17506,1.05031 1.09186,1.847 1.42858,2.85715 0.30002,0.90007 0,7.48084 0,8.57143 0,0.47619 -0.15059,0.97681 0,1.42857 0.33671,1.01015 1.17032,1.82414 1.42857,2.85714 0.26318,1.05271 -0.41848,6.30589 0,7.14286 0.30117,0.60234 1.1274,0.82623 1.42857,1.42857 0.57143,1.14286 -0.57143,3.14286 0,4.28571 0.30117,0.60234 1.21561,0.7897 1.42857,1.42857 0.59548,1.78643 -0.59548,8.21358 0,10 0.42592,1.27776 2.2548,1.65247 2.85714,2.85715 0.21296,0.42592 0,0.95238 0,1.42857 0,0.95238 0,1.90476 0,2.85714 0,2.85714 0,5.71429 0,8.57143 0,0.47619 0,0.95238 0,1.42857 0,0.47619 -0.21296,1.00266 0,1.42857 0.30117,0.60234 1.12741,0.82624 1.42857,1.42857 0.18782,0.37564 0,4.96726 0,5.71429 0,5.71429 0,11.42857 0,17.14286 0,1.28766 -0.29971,6.24371 0,7.14285 0.33672,1.01016 0.83793,1.97119 1.42858,2.85715 0.37355,0.56033 1.21561,0.78969 1.42857,1.42857 0.30117,0.90351 -0.42592,2.00531 0,2.85714 0.60234,1.20468 1.90476,1.90476 2.85714,2.85714 0.47619,0.4762 1.21561,0.7897 1.42857,1.42858 0.44012,1.32035 -0.44419,5.81029 0,7.14285 0.33672,1.01016 1.09186,1.84699 1.42857,2.85715 0.26867,0.80599 0,3.34699 0,4.28571 0,3.33333 0,6.66667 0,10 0,3.33333 0,6.66667 0,10 0,1.42857 0.34648,2.8998 0,4.28571 0.86104,2.58563 -2.3142,2.6569 -2.85714,4.28572 -0.45175,1.35526 0,2.85714 0,4.28571 0,3.33334 0,6.66667 0,10 0,9.52381 0,19.04762 0,28.57143 0,2.04424 0.67344,3.23471 -1.42857,4.28572 -0.4237,0.21184 -7.18967,0 -8.57143,0 -9.52381,0 -19.04762,0 -28.57143,0 -2.38095,0 -4.7619,0 -7.14286,0 -0.95238,0 -1.90476,0 -2.85714,0 -0.47619,0 -1.00265,-0.21296 -1.42857,0 -0.60234,0.30117 -0.82623,1.1274 -1.42857,1.42857 -0.42592,0.21296 -0.95238,0 -1.42857,0 -0.95238,0 -1.90476,0 -2.85715,0 -2.85714,0 -5.71428,0 -8.57142,0 -6.66667,0 -13.33334,0 -20,0 -9.52381,0 -19.04762,0 -28.571433,0 -3.809524,0 -7.619047,0 -11.428571,0 -1.428572,0 -2.857143,0 -4.285715,0 -0.47619,0 -1.428571,-0.47619 -1.428571,0 0,0.47619 1.904762,0 1.428571,0 -2.380952,0 -4.761904,0 -7.142857,0 -2.857143,0 -5.714285,0 -8.571428,0 -0.476191,0 -1.428572,-0.47619 -1.428572,0 0,0.47619 1.904762,0 1.428572,0 -1.428572,0 -2.899797,0.34648 -4.285715,0 -0.653327,-0.16333 -0.826232,-1.1274 -1.428571,-1.42857 -0.320186,-0.1601 -5.374814,0 -5.714286,0"
       id="path4747"
       inkscape:connector-curvature="0" />
    <path
       style="fill:none;fill-rule:evenodd;stroke:#000000;stroke-width:10;stroke-linecap:butt;stroke-linejoin:miter;stroke-miterlimit:4;stroke-dasharray:none;stroke-opacity:1"
       d="m 30,553.44285 c 4.285714,0 8.571429,0 12.857143,0 0.47619,0 0.952381,0 1.428571,0 0.476191,0 1.002654,-0.21296 1.428572,0 0.602338,0.30117 0.789695,1.21561 1.428571,1.42857 0.760379,0.25346 10.202443,0 11.428572,0 1.276745,0 6.687609,0.22762 7.142857,0 0.602338,-0.30117 0.826233,-1.1274 1.428571,-1.42857 0.850522,-0.42526 5.940098,0.40092 7.142857,0 10.347738,-3.44925 -2.252296,0.41186 4.285715,-2.85714 0.425917,-0.21296 1.002653,0.21296 1.428571,0 0.602339,-0.30117 0.826233,-1.12741 1.428571,-1.42858 0.423695,-0.21184 7.189671,0 8.571429,0 3.809524,0 7.619048,0 11.42857,0 1.2095,0 4.94628,-0.256 5.71429,0 0.63887,0.21296 0.82623,1.12741 1.42857,1.42858 0.42592,0.21296 1.42857,0.47619 1.42857,0 0,-0.47619 -1.90476,0 -1.42857,0 0.95238,0 1.90476,0 2.85714,0 3.80953,0 7.61905,0 11.42857,0 1.90476,0 3.80953,0 5.71429,0 0.47619,0 1.42857,0.47619 1.42857,0 0,-0.47619 -1.90476,0 -1.42857,0 1.42857,0 2.8998,-0.34648 4.28571,0 0.65333,0.16333 0.82624,1.1274 1.42857,1.42857 0.83992,0.41996 4.54159,-0.29318 5.71429,0 1.46089,0.36522 2.82483,1.06335 4.28571,1.42857 1.12558,0.28139 4.78241,0 5.71429,0"
       id="path4749"
       inkscape:connector-curvature="0" />
    <path
       style="fill:none;fill-rule:evenodd;stroke:#000000;stroke-width:10;stroke-linecap:butt;stroke-linejoin:miter;stroke-miterlimit:4;stroke-dasharray:none;stroke-opacity:1"
       d="m 471.42857,660.58571 c 0,13.33333 0,26.66666 0,40 0,2.38095 0,4.7619 0,7.14285 0,0.47619 0,0.95238 0,1.42857 0,0.4762 -0.21296,1.00266 0,1.42858 0.30117,0.60233 0.82623,1.1274 1.42857,1.42857 0.4237,0.21184 7.18967,0 8.57143,0 4.76191,0 9.52381,0 14.28572,0 0.35445,0 5.59677,-0.0784 5.71428,0 1.12067,0.74711 1.73648,2.11003 2.85714,2.85714 0.39622,0.26414 0.95239,0 1.42858,0 0.47619,0 0.95238,0 1.42857,0 0.95238,0 1.90476,0 2.85714,0 1.42857,0 2.8998,-0.34648 4.28571,0 0.65333,0.16333 0.82624,1.1274 1.42858,1.42857 0.42369,0.21185 7.18967,0 8.57142,0 3.33334,0 6.66667,0 10,0 0.95239,0 1.95364,0.30117 2.85715,0 8.09383,-4.04692 -2.12959,0.5324 5.71428,-1.42857 1.03301,-0.25825 1.82414,-1.17032 2.85715,-1.42857 1.08859,-0.27215 8.52194,0 10,0 6.19047,0 12.38095,0 18.57142,0 10,0 20,0 30,0 3.33334,0 6.67316,-0.20793 10,0 4.3037,0.26898 8.61067,0.67919 12.85715,1.42857 3.86701,0.68242 7.53625,2.33817 11.42857,2.85714 3.30409,0.44055 6.66667,0 10,0 7.14286,0 14.28571,0 21.42857,0 2.85714,0 5.71429,0 8.57143,0 1.42857,0 2.93045,0.45176 4.28571,0 0.63888,-0.21296 0.95238,-0.95238 1.42857,-1.42857"
       id="path4751"
       inkscape:connector-curvature="0" />
    <text
       xml:space="preserve"
       style="font-style:normal;font-weight:normal;font-size:20px;line-height:125%;font-family:sans-serif;letter-spacing:0px;word-spacing:0px;fill:#000000;fill-opacity:1;stroke:none;stroke-width:1px;stroke-linecap:butt;stroke-linejoin:miter;stroke-opacity:1"
       x="60"
       y="536.38855"
       id="text4753"
       sodipodi:linespacing="125%"><tspan
         sodipodi:role="line"
         id="tspan4755"
         x="60"
         y="536.38855"
         style="font-style:normal;font-variant:normal;font-weight:bold;font-stretch:normal;font-family:Purisa;-inkscape-font-specification:'Purisa Bold'">Toilet</tspan></text>
    <text
       xml:space="preserve"
       style="font-style:normal;font-variant:normal;font-weight:bold;font-stretch:normal;font-size:20px;line-height:125%;font-family:Purisa;-inkscape-font-specification:'Purisa Bold';text-align:center;letter-spacing:0px;word-spacing:0px;text-anchor:middle;fill:#000000;fill-opacity:1;stroke:none;stroke-width:1px;stroke-linecap:butt;stroke-linejoin:miter;stroke-opacity:1"
       x="500.54129"
       y="234.47998"
       id="text4757"
       sodipodi:linespacing="125%"
       onclick=""><tspan
         sodipodi:role="line"
         x="500.54129"
         y="234.47998"
         id="tspan4761">Bedroom</tspan></text>
    <text
       xml:space="preserve"
       style="font-style:normal;font-variant:normal;font-weight:bold;font-stretch:normal;font-size:20px;line-height:125%;font-family:Purisa;-inkscape-font-specification:'Purisa Bold';letter-spacing:0px;word-spacing:0px;fill:#000000;fill-opacity:1;stroke:none;stroke-width:1px;stroke-linecap:butt;stroke-linejoin:miter;stroke-opacity:1"
       x="230"
       y="127.09998"
       id="text4763"
       sodipodi:linespacing="125%"
       onclick="?room=foyer"><tspan
         sodipodi:role="line"
         id="tspan4765"
         x="230"
         y="127.09998">Foyer</tspan></text>
    <text
       xml:space="preserve"
       style="font-style:normal;font-weight:normal;font-size:20px;line-height:125%;font-family:sans-serif;letter-spacing:0px;word-spacing:0px;fill:#000000;fill-opacity:1;stroke:none;stroke-width:1px;stroke-linecap:butt;stroke-linejoin:miter;stroke-opacity:1"
       x="126.74429"
       y="157.27145"
       id="text4767"
       sodipodi:linespacing="125%"
       onclick="?room=guestroom"><tspan
         sodipodi:role="line"
         id="tspan4769"
         x="126.74429"
         y="157.27145"
         style="font-style:normal;font-variant:normal;font-weight:bold;font-stretch:normal;font-family:Purisa;-inkscape-font-specification:'Purisa Bold';text-align:center;text-anchor:middle">Guest</tspan><tspan
         sodipodi:role="line"
         x="126.74429"
         y="182.27145"
         style="font-style:normal;font-variant:normal;font-weight:bold;font-stretch:normal;font-family:Purisa;-inkscape-font-specification:'Purisa Bold';text-align:center;text-anchor:middle"
         id="tspan4771">Room</tspan></text>
    <text
       xml:space="preserve"
       style="font-style:normal;font-weight:normal;font-size:20px;line-height:125%;font-family:sans-serif;letter-spacing:0px;word-spacing:0px;fill:#000000;fill-opacity:1;stroke:none;stroke-width:1px;stroke-linecap:butt;stroke-linejoin:miter;stroke-opacity:1"
       x="467.14285"
       y="527.11713"
       id="text4773"
       sodipodi:linespacing="125%"
       onclick="?room=theater"><tspan
         sodipodi:role="line"
         id="tspan4775"
         x="467.14285"
         y="527.11713"
         style="font-style:normal;font-variant:normal;font-weight:bold;font-stretch:normal;font-family:Purisa;-inkscape-font-specification:'Purisa Bold'">Theater</tspan></text>
    <text
       xml:space="preserve"
       style="font-style:normal;font-weight:normal;font-size:20px;line-height:125%;font-family:sans-serif;letter-spacing:0px;word-spacing:0px;fill:#000000;fill-opacity:1;stroke:none;stroke-width:1px;stroke-linecap:butt;stroke-linejoin:miter;stroke-opacity:1"
       x="74.285713"
       y="663.70001"
       id="text4777"
       sodipodi:linespacing="125%"><tspan
         sodipodi:role="line"
         id="tspan4779"
         x="74.285713"
         y="663.70001"
         style="font-style:normal;font-variant:normal;font-weight:bold;font-stretch:normal;font-family:Purisa;-inkscape-font-specification:'Purisa Bold'">Bathroom</tspan></text>
    <text
       xml:space="preserve"
       style="font-style:normal;font-weight:normal;font-size:20px;line-height:125%;font-family:sans-serif;letter-spacing:0px;word-spacing:0px;fill:#000000;fill-opacity:1;stroke:none;stroke-width:1px;stroke-linecap:butt;stroke-linejoin:miter;stroke-opacity:1"
       x="115.74036"
       y="389.44568"
       id="text4781"
       sodipodi:linespacing="125%"
       onclick="?room=toyroom"><tspan
         sodipodi:role="line"
         id="tspan4783"
         x="115.74036"
         y="389.44568"
         style="font-style:normal;font-variant:normal;font-weight:bold;font-stretch:normal;font-family:Purisa;-inkscape-font-specification:'Purisa Bold';text-align:center;text-anchor:middle">Toy</tspan><tspan
         sodipodi:role="line"
         x="115.74036"
         y="414.44568"
         id="tspan4785"
         style="font-style:normal;font-variant:normal;font-weight:bold;font-stretch:normal;font-family:Purisa;-inkscape-font-specification:'Purisa Bold';text-align:center;text-anchor:middle">Room</tspan></text>
    <text
       xml:space="preserve"
       style="font-style:normal;font-weight:normal;font-size:20px;line-height:125%;font-family:sans-serif;letter-spacing:0px;word-spacing:0px;fill:#000000;fill-opacity:1;stroke:none;stroke-width:1px;stroke-linecap:butt;stroke-linejoin:miter;stroke-opacity:1"
       x="562.51135"
       y="776.51404"
       id="text4787"
       sodipodi:linespacing="125%"><tspan
         sodipodi:role="line"
         id="tspan4789"
         x="562.51135"
         y="776.51404"
         style="font-style:normal;font-variant:normal;font-weight:bold;font-stretch:normal;font-family:Purisa;-inkscape-font-specification:'Purisa Bold';text-align:center;text-anchor:middle">Kitchen</tspan></text>
    <text
       xml:space="preserve"
       style="font-style:normal;font-weight:normal;font-size:20px;line-height:125%;font-family:sans-serif;letter-spacing:0px;word-spacing:0px;fill:#000000;fill-opacity:1;stroke:none;stroke-width:1px;stroke-linecap:butt;stroke-linejoin:miter;stroke-opacity:1"
       x="547.14288"
       y="688.77142"
       id="text4791"
       sodipodi:linespacing="125%"><tspan
         sodipodi:role="line"
         id="tspan4793"
         x="547.14288"
         y="688.77142"
         style="font-style:normal;font-variant:normal;font-weight:bold;font-stretch:normal;font-family:Purisa;-inkscape-font-specification:'Purisa Bold'">Pantry</tspan></text>
    <text
       xml:space="preserve"
       style="font-style:normal;font-weight:normal;font-size:20px;line-height:125%;font-family:sans-serif;letter-spacing:0px;word-spacing:0px;fill:#000000;fill-opacity:1;stroke:none;stroke-width:1px;stroke-linecap:butt;stroke-linejoin:miter;stroke-opacity:1"
       x="75.714287"
       y="797.98572"
       id="text4795"
       sodipodi:linespacing="125%"><tspan
         sodipodi:role="line"
         id="tspan4797"
         x="75.714287"
         y="797.98572"
         style="font-style:normal;font-variant:normal;font-weight:bold;font-stretch:normal;font-family:Purisa;-inkscape-font-specification:'Purisa Bold'">Basement</tspan></text>
    <text
       xml:space="preserve"
       style="font-style:normal;font-weight:normal;font-size:20px;line-height:125%;font-family:sans-serif;letter-spacing:0px;word-spacing:0px;fill:#000000;fill-opacity:1;stroke:none;stroke-width:1px;stroke-linecap:butt;stroke-linejoin:miter;stroke-opacity:1"
       x="570"
       y="931.86285"
       id="text4799"
       sodipodi:linespacing="125%"><tspan
         sodipodi:role="line"
         id="tspan4801"
         x="570"
         y="931.86285"
         style="font-style:normal;font-variant:normal;font-weight:bold;font-stretch:normal;font-family:Purisa;-inkscape-font-specification:'Purisa Bold'">Shed</tspan></text>
    <text
       xml:space="preserve"
       style="font-style:normal;font-weight:normal;font-size:20px;line-height:125%;font-family:sans-serif;letter-spacing:0px;word-spacing:0px;fill:#000000;fill-opacity:1;stroke:none;stroke-width:1px;stroke-linecap:butt;stroke-linejoin:miter;stroke-opacity:1"
       x="207.89558"
       y="941.51306"
       id="text4803"
       sodipodi:linespacing="125%"><tspan
         sodipodi:role="line"
         id="tspan4805"
         x="207.89558"
         y="941.51306"
         style="font-style:normal;font-variant:normal;font-weight:bold;font-stretch:normal;font-family:Purisa;-inkscape-font-specification:'Purisa Bold'">Back Yard</tspan></text>
    <path
       style="fill:none;fill-rule:evenodd;stroke:#000000;stroke-width:10;stroke-linecap:butt;stroke-linejoin:miter;stroke-miterlimit:4;stroke-dasharray:none;stroke-opacity:1"
       d="m 470.73109,710.02969 c 0,3.70389 0,7.40778 0,11.11167 0,0.45493 0.15371,2.72304 0,3.03046 -0.42592,0.85184 -1.59439,1.16847 -2.02031,2.02031 -0.298,0.59601 0.23161,2.33564 0,3.03045 -0.23809,0.71429 -0.77206,1.30602 -1.01015,2.02031 -0.23161,0.69482 0.298,2.43445 0,3.03046 -3.35026,3.35025 0.47619,-0.95238 -1.01015,2.0203 -0.21296,0.42592 -0.7972,0.58424 -1.01016,1.01015 -0.18265,0.36531 0,4.34817 0,5.05077 0,6.60814 0,9.15628 0,14.14213 0,0.84651 0.21467,4.62144 0,5.05077 -0.57165,1.1433 -1.2979,-0.64895 -2.0203,-1.01016 -0.22641,-0.1132 -3.80057,0 -4.04061,0 -6.06092,0 -12.12183,0 -18.18275,0 -7.40778,0 -14.81557,0 -22.22335,0 -2.02031,0 -4.04061,0 -6.06092,0 -0.33672,0 -0.67343,0 -1.01015,0 -0.33672,0 -0.72999,-0.18677 -1.01015,0 -0.79243,0.52829 -1.22788,1.49202 -2.02031,2.02031 -0.17401,0.11601 -4.90658,0 -5.05076,0 -4.04061,0 -8.08122,0 -12.12183,0 -14.81557,0 -29.63114,0 -44.44671,0 -5.08406,0 -9.51403,0 -12.12183,0 -1.01391,0 -3.38495,0.30117 -4.04062,-1.01015 -0.21295,-0.42592 0.67344,-0.67344 1.01016,-1.01016 0.33671,-0.33671 0.67343,-0.67343 1.01015,-1.01015 3.35025,-3.35025 -0.47619,0.95238 1.01015,-2.0203 0.21296,-0.42592 0.67344,-0.67344 1.01016,-1.01016 0.67343,-0.67343 1.49201,-1.22787 2.0203,-2.0203 0.10034,-0.15051 0,-2.69872 0,-3.03046 0,-4.37733 0,-8.75465 0,-13.13198 0,-0.97705 0.1498,-5.76132 0,-6.06092 -0.21296,-0.42592 -0.79719,-0.58423 -1.01015,-1.01015 -0.31745,-0.6349 0.31745,-3.40571 0,-4.04061 -0.21296,-0.42592 -0.7972,-0.58424 -1.01015,-1.01015 -0.15059,-0.30117 0,-0.67344 0,-1.01016 0,-0.67343 0.21295,-1.38142 0,-2.0203 -0.15059,-0.45175 -0.7972,-0.58424 -1.01016,-1.01015 -0.23785,-0.47571 0.2965,-4.04061 0,-4.04061 -0.67343,0 0,2.69374 0,2.0203 0,-2.69374 0,-5.38748 0,-8.08122 0,-8.12975 0,-14.20144 0,-20.20305"
       id="path4828"
       inkscape:connector-curvature="0" />
    <text
       xml:space="preserve"
       style="font-style:normal;font-variant:normal;font-weight:bold;font-stretch:normal;font-size:20px;line-height:125%;font-family:Purisa;-inkscape-font-specification:'Purisa Bold';letter-spacing:0px;word-spacing:0px;fill:#000000;fill-opacity:1;stroke:none;stroke-width:1px;stroke-linecap:butt;stroke-linejoin:miter;stroke-opacity:1"
       x="352.54324"
       y="712.82849"
       id="text4830"
       sodipodi:linespacing="125%"><tspan
         sodipodi:role="line"
         id="tspan4832"
         x="352.54324"
         y="712.82849">Dungeon</tspan></text>
  </g>
</svg>
